# xmcd
#
# Track frame offsets: 
#        150
#        22913
#        43180
#        64147
#        83168
#        101571
#        122826
#        152484
#        164761
#        183190
#        201221
#        220339
#
# Disc length: 3154 seconds
#
# Revision: 0
# Processed by: cddbd v1.5.1PL0 Copyright (c) Steve Scherf et al.
# Submitted via: ExactAudioCopy v0.95a5
#
DISCID=a20c500c
DTITLE=Staple Singers - Be What You Are
DYEAR=1973
DGENRE=Soul
TTITLE0=Be What You Are
TTITLE1=You´re Ready (Come Go With Me)
TTITLE2=Love Comes In All Colours
TTITLE3=Tellin´ Lies
TTITLE4=Touch Hand, Make A Friend
TTITLE5=Drown Yourself
TTITLE6=I Ain´t Raisin No Sand
TTITLE7=Grandma´s Hands
TTITLE8=Bridges Instead Walls 
TTITLE9=I´m On Your Side
TTITLE10=That´s What Friends Are For
TTITLE11=Heaven
EXTD=
EXTT0=
EXTT1=
EXTT2=
EXTT3=
EXTT4=
EXTT5=
EXTT6=
EXTT7=
EXTT8=
EXTT9=
EXTT10=
EXTT11=
PLAYORDER=
